<?xml version="1.0" encoding="UTF-8"?><svg id="Layer_2" xmlns="http://www.w3.org/2000/svg" viewBox="0 0 1036.16 450"><defs><style>.cls-1{fill:none;}</style></defs><g id="Layer_1-2"><g><rect class="cls-1" width="1036.16" height="450"/><g><path d="m518.08,0c-140.61,0-256,114.39-256,255v120c0,24.81,20.19,45,45,45h15v-150h-15c-5.28,0-10.28,1.08-15,2.76v-17.76c0-124.07,101.93-225,226-225s226,100.93,226,225v17.76c-4.71-1.68-9.72-2.76-15-2.76h-15v150h15c24.81,0,45-20.19,45-45v-120C774.08,114.39,658.69,0,518.08,0Z"/><path d="m397.08,240h-15c-16.57,0-30,13.43-30,30v150c0,16.57,13.43,30,30,30h15c8.28,0,15-6.72,15-15v-180c0-8.28-6.72-15-15-15Zm257,0h-15c-8.28,0-15,6.72-15,15v180c0,8.28,6.72,15,15,15h15c16.57,0,30-13.43,30-30v-150c0-16.57-13.43-30-30-30Z"/></g></g></g></svg>