<?xml version="1.0" encoding="UTF-8"?><svg id="Layer_2" xmlns="http://www.w3.org/2000/svg" viewBox="0 0 412.93 412.93"><g id="Layer_1-2"><path d="m363.77,0H49.16C22.02,0,0,22.02,0,49.16v314.62c0,27.14,22.02,49.16,49.16,49.16h314.62c27.14,0,49.16-22.02,49.16-49.16V49.16c0-27.14-22.02-49.16-49.16-49.16Zm-39.33,147.48h-19.66c-21.04,0-29.5,4.92-29.5,19.66v29.5h49.16l-9.83,49.16h-39.33v147.48h-49.16v-147.48h-39.33v-49.16h39.33v-29.5c0-39.33,19.66-68.82,58.99-68.82,28.51,0,39.33,9.83,39.33,9.83v39.33Z"/></g></svg>