<?xml version="1.0" encoding="UTF-8"?><svg id="Layer_2" xmlns="http://www.w3.org/2000/svg" viewBox="0 0 412.93 412.93"><g id="Layer_1-2"><g><circle cx="206.47" cy="206.47" r="68.82" transform="translate(-85.52 206.47) rotate(-45)"/><path d="m363.77,0H49.16C22.02,0,0,22.02,0,49.16v314.62c0,27.14,22.02,49.16,49.16,49.16h314.62c27.14,0,49.16-22.02,49.16-49.16V49.16c0-27.14-22.02-49.16-49.16-49.16Zm-157.31,309.7c-56.93,0-103.23-46.3-103.23-103.23s46.3-103.23,103.23-103.23,103.23,46.3,103.23,103.23-46.3,103.23-103.23,103.23Zm120.44-206.47c-9.5,0-17.21-7.71-17.21-17.21s7.71-17.21,17.21-17.21,17.21,7.71,17.21,17.21-7.71,17.21-17.21,17.21Z"/></g></g></svg>