<?xml version="1.0" encoding="UTF-8"?><svg id="Layer_2" xmlns="http://www.w3.org/2000/svg" viewBox="0 0 857.21 409.15"><g id="Layer_1-2"><path d="m0,.23c6.24,0,11.47,0,16.7,0,79.15,0,158.31.62,237.46-.21,55.3-.58,103.36,15.99,143.31,54.62,30.71,29.69,61.29,59.53,91.89,89.34,1.74,1.7,3.23,3.66,5.25,5.97-25.05,24.04-49.86,47.85-75.44,72.41-11.89-11.96-25.46-25.69-39.11-39.34-18.71-18.71-36.78-38.13-56.41-55.83-18.16-16.37-40.87-23.94-65.17-24.24-49.11-.6-98.23-.19-147.34-.17-1.73,0-3.46.38-6.06.68v48.41c4.21.3,8.65.88,13.08.88,42.05.06,84.11.48,126.14-.17,25.5-.39,45.61,9.7,63.06,27.31,36.54,36.87,73.17,73.66,110.06,110.17,9.79,9.68,22.12,15.67,36.07,15.7,86.22.21,172.44.07,258.65.02.64,0,1.28-.4,3.81-1.25-61.15-61.92-121.68-123.22-181.61-183.91,25.23-25.6,49.85-50.58,75.15-76.24,15.68,16.38,30.97,32.91,46.84,48.86,60.79,61.09,121.73,122.03,182.68,182.95,24.18,24.17,24.32,35.72.05,60.06-17.96,18-36.18,35.74-53.97,53.91-12.29,12.56-26.66,18.58-44.41,18.54-101.77-.27-203.55-1.09-305.3.44-32.4.49-56.85-9.83-78.66-32.94-31.25-33.12-64.53-64.33-96.24-97.04-15.79-16.29-33.73-23.81-56.55-23.54-63.6.76-127.21.34-190.81.38-4.15,0-8.3,0-13.13,0V.23Z"/></g></svg>