<?xml version="1.0" encoding="UTF-8"?><svg id="Layer_2" xmlns="http://www.w3.org/2000/svg" viewBox="0 0 1036.16 450"><defs><style>.cls-1{fill:none;}</style></defs><g id="Layer_1-2"><g><rect class="cls-1" width="1036.16" height="450"/><g id="Page-1"><g id="Artboard"><g id="soundcloud-logo"><path id="Shape" d="m11.73,269.13c-2.16,0-3.88,1.67-4.16,4.06l-7.58,57.56,7.58,56.56c.28,2.38,1.99,4.05,4.16,4.05s3.8-1.65,4.13-4.02h0s0-.01,0,0l8.98-56.59-8.98-57.57c-.32-2.37-2.05-4.05-4.13-4.05Zm42.61-31.45c-.36-2.47-2.13-4.18-4.31-4.18s-4.01,1.76-4.31,4.18c0,.02-10.18,93.06-10.18,93.06l10.18,91c.29,2.44,2.11,4.2,4.31,4.2s3.94-1.72,4.3-4.18l11.59-91.02-11.58-93.06Zm160.51-85.84c-4.18,0-7.63,3.42-7.83,7.77l-8.11,171.21,8.11,110.64c.21,4.32,3.66,7.73,7.83,7.73s7.6-3.42,7.84-7.76v.03l9.17-110.65-9.17-171.21c-.25-4.35-3.69-7.77-7.84-7.77Zm-83.07,59.51c-3.21,0-5.83,2.56-6.08,5.98l-9.14,113.44,9.14,109.75c.25,3.4,2.87,5.96,6.08,5.96s5.79-2.56,6.07-5.96l10.39-109.75-10.39-113.46c-.28-3.4-2.9-5.96-6.07-5.96Zm167.49,237.83c5.18,0,9.39-4.18,9.61-9.53l7.96-108.78-7.95-227.94c-.21-5.35-4.42-9.53-9.61-9.53s-9.45,4.19-9.62,9.54c0,.01-7.05,227.91-7.05,227.91l7.05,108.83c.17,5.3,4.39,9.49,9.61,9.49Zm172.83.51c7.13,0,13.02-5.87,13.15-13.09v.08-.08l5.55-105.66-5.55-263.25c-.12-7.21-6.02-13.09-13.15-13.09s-13.04,5.87-13.15,13.1l-4.96,263.15c0,.17,4.96,105.82,4.96,105.82.11,7.15,6.02,13.03,13.15,13.03Zm-87.07-.41c6.21,0,11.21-4.98,11.38-11.33v.08l6.75-107.13-6.76-229.59c-.17-6.35-5.17-11.32-11.38-11.32s-11.25,4.97-11.39,11.32l-6.01,229.6,6.02,107.11c.13,6.28,5.14,11.27,11.39,11.27Zm-211.88-1c3.69,0,6.67-2.95,6.95-6.84l9.78-110.66-9.78-105.27c-.27-3.89-3.25-6.82-6.95-6.82s-6.73,2.95-6.96,6.86l-8.61,105.23,8.61,110.65c.25,3.9,3.22,6.85,6.96,6.85Zm-82.42-6.06c2.7,0,4.88-2.13,5.19-5.07l10.99-106.4-10.98-110.41c-.32-2.95-2.51-5.08-5.2-5.08s-4.91,2.14-5.19,5.08c0,.01-9.67,110.41-9.67,110.41l9.67,106.37c.27,2.95,2.45,5.09,5.19,5.09ZM428.4,97.49c-6.74,0-12.15,5.36-12.28,12.22l-5.48,221.21,5.48,106.44c.13,6.78,5.53,12.14,12.28,12.14s12.1-5.35,12.26-12.21v.09l6.15-106.44-6.15-221.24c-.16-6.84-5.53-12.2-12.26-12.2Zm-171.5,351.92c4.66,0,8.5-3.8,8.73-8.65l8.56-109.91-8.56-210.36c-.23-4.86-4.07-8.65-8.73-8.65s-8.54,3.8-8.74,8.65c0,.01-7.58,210.36-7.58,210.36l7.59,109.95c.19,4.8,4.02,8.6,8.73,8.6Zm95.56-10.37v-.06l7.35-108.09-7.35-235.61c-.18-5.85-4.79-10.44-10.49-10.44s-10.34,4.58-10.5,10.44l-6.53,235.6,6.54,108.15c.16,5.79,4.77,10.37,10.49,10.37s10.3-4.58,10.49-10.41v.04h0Zm556.25-243.96c-17.46,0-34.12,3.53-49.3,9.9C849.29,90.1,752.96,0,635.47,0c-28.75,0-56.78,5.66-81.52,15.23-9.62,3.72-12.18,7.56-12.27,14.99v404.5c.1,7.8,6.15,14.3,13.76,15.07.32.03,351,.21,353.28.21,70.38,0,127.45-57.06,127.45-127.46s-57.05-127.47-127.43-127.47ZM515.62,29.86c-7.66,0-13.94,6.28-14.05,14.01l-5.75,287.11,5.76,104.2c.1,7.61,6.39,13.88,14.04,13.88s13.92-6.27,14.03-14v.12l6.25-104.21-6.25-287.13c-.11-7.7-6.4-13.98-14.03-13.98Z"/></g></g></g></g></g></svg>